<svg version="1.2" xmlns="http://www.w3.org/2000/svg" viewBox="0 0 696 696" width="256" height="256"><style>.a{fill:#bd3c58}.b{fill:#c83251}.c{fill:#c93655}</style><path fill-rule="evenodd" class="a" d="m441.2 378c-0.6 3.2-0.4 5.6 3.1 7.7 4.1 2.4 2 6.4 0.4 10 5.4 2.9 5.9 7 1.9 12.2 6.7 1.9 5.7 7.3 6.2 11.9 0.9 8.6 2.7 17.2 2.4 25.7-0.6 18.5-9.6 33.6-21.2 47.4-9.5 11.3-20.6 20.8-32.9 28.9-2.6 1.7-3.5 3.5-3.5 6.5 0.1 30.8-0.1 61.6 0.3 92.5 0 3.3 2.1 7.7 4.7 9.7 9.8 7.5 20.4 13.5 33.5 13.3 18.8-0.3 37.7-0.1 56.5-0.1 2.8 0 5.4 0.3 5.4 3.6-0.1 1.6-1.4 3.5-2.7 4.7-0.8 0.7-2.6 0.3-3.9 0.3-20.5 0.1-41 0.2-61.5 0.1q-120.4 0-240.9-0.1c-0.7 0-1.4 0-2 0-3.2 0.2-5.2-1.2-5.1-4.6 0.1-3.2 2.2-4 5.1-4 14 0.1 28 0 42 0q12.7 0 25.5 0c1.6 0 3.1-0.2 6.3-0.4-9.7-7.5-6.4-17.1-6.4-25.6-0.2-112.3-0.2-224.7-0.2-337 0-14.6 4.7-27.4 16.3-37.1 11.5-9.6 20.7-20.8 22.8-36.3 0.7-4.9 1.1-10 1.1-14.9 0.1-30 0.1-60-0.1-90 0-2-1.6-4-2.4-6-0.8-1.9-2.1-3.9-2.2-5.8-0.2-6.2-0.1-12.4 0-18.5 0-5.2 2.2-8 7.4-8q27.3-0.4 54.5 0c5.4 0.1 7.1 2.6 7.2 8.1 0 5.4-0.1 10.7 0 16 0.1 3.6 0 6.9-3.4 9.4-0.9 0.7-1.1 3-1.1 4.5 0 31 0.2 62-0.1 93-0.1 18.6 6.4 34.2 20.8 45.6 14.8 11.7 16 26.2 11.7 42.6-6.6 24.9-19.2 47.1-29.8 70.2-9.2 20.4-18.4 40.9-26.5 61.8-11.8 30.9-1.4 56.9 20.7 79 8.5 8.5 18.4 15.7 28 23.1 3.1 2.4 4.5 4.7 4.5 8.6-0.1 30.5-0.4 61 0.2 91.5 0.2 10.5-4.4 17-12.4 22.1-1.3 0.8-2.5 1.6-3.6 3.4 13.1 0 26.1 0 40.5 0-2.2-1.5-3.5-2.5-4.9-3.4-8.6-5.1-12.8-12.2-12.6-22.6 0.3-29.4 0.2-58.9 0-88.4 0-5.5 1.5-9 6.4-12.2 17.9-11.8 33.4-26 43.7-45.1 7.9-14.7 10.6-30 6.2-46.3-0.7-2.4-0.8-5-1.3-7.4-0.3-1.2-0.7-2.9-1.6-3.3-5.2-2.9-6.5-6.5-2.1-11.6-5.1-3.1-6.1-7.1-2.4-12.2-5.5-1.8-6.8-5.8-6.5-11 2.8-0.8 5.4-1.2 8-1.5zm-113.9 25.6c10.6-23.3 21.1-46.6 31.9-69.9 8.3-17.9 17.6-35.5 21.7-55 2.5-11.7 2.4-22.8-8.3-31.3-18.6-14.7-25.7-34.3-25.4-57.6 0.5-29.8 0.1-59.6 0.2-89.5 0-3.5-1-7.5 3.9-9.1 0.6-0.2 1-2 1-3.1 0.1-4.6 0-9.3 0.1-14 0.1-2.8-1.2-3.7-3.9-3.7-16.2 0-32.3-0.1-48.5 0.2-1.2 0-3.3 2-3.4 3.3-0.4 4.8-0.2 9.6-0.1 14.5 0 1 0.4 2.7 1.1 3 4 1.4 3.6 4.7 3.6 7.9 0 30.5 0.2 61-0.1 91.5 0 7.2-0.7 14.6-2.2 21.8-2.9 14.9-12.2 26-23.5 35.5-10.1 8.4-14.5 19.2-14.5 32 0 116.3 0 232.7-0.1 349 0 4.9 1.7 7.8 6 8.9 8.9 2.1 17.8 4.8 26.8 5.4 13.2 0.9 26.7-0.3 39.9 0.5 12.4 0.8 22.9-3.3 33.1-9.1 7.1-4 11-9.3 10.8-18.5-0.6-29.1-0.3-58.3-0.2-87.4 0.1-3.4-0.9-5.4-3.8-7.3-14.6-9.6-27.5-21.1-37.8-35.3-12.2-16.7-19.5-34.9-15.6-56 1.7-8.8 4.7-17.3 7.3-26.7z"/><path class="b" d="m384.1 424c18.2 4.8 36.1 6.4 54.6 1 3 8.1 2.7 16.1 1.2 24.1-3.8 19-15.2 33.4-29.2 45.8-6.3 5.7-13.4 10.4-20.4 15.3-1.3 0.9-4 1.2-5.3 0.4-19.4-12.3-36.3-27.1-45.7-48.7-4.3-10.1-6-20.6-3.9-31.7 0.6-3.3 2-4.9 5-5.9 13.5-4.7 27.1-4.3 40.8-0.8 0.8 0.2 1.6 0.3 2.9 0.5z"/><path class="c" d="m441.5 377.8c-2.9 0.5-5.5 0.9-8.5 1.3-1.1-0.9-1.7-1.9-2.2-3.5-0.2-1.3-0.5-1.9-0.7-2.6-1.5-5.5-3.2-11.1-4.3-16.8-0.9-4.3-2.9-5.1-7-4.1-10.2 2.7-20.6 5-30.9 7.5-6.4 1.5-11.8-1.5-13.2-7.3-1.3-5.2 2-10.5 8-11.9 19.8-4.9 39.7-9.5 59.5-14.3 7.3-1.7 14.5-3.8 21.8-5.1 3.5-0.7 7.4-0.9 10.7 0.1 3.8 1.3 5.7 5.1 5.4 9.3-0.4 4.3-2.7 7.6-7.1 8.7-9.5 2.5-19 4.7-28.5 7-2.6 0.7-5.1 1.4-7.8 2.1 1.9 8.7 3.7 17.1 5.5 26.4-0.1 1.4-0.1 2-0.1 2.5-0.1 0.2-0.2 0.4-0.6 0.7z"/><path class="a" d="m429.9 373.3c0.4 0.4 0.7 1 1 2-0.4-0.4-0.8-1.1-1-2z"/><path class="a" d="m442.3 377.1c-0.2-0.5-0.2-1.1-0.2-2.1 0.2 0.4 0.3 1.2 0.2 2.1z"/></svg>